<svg enable-background="new 0 0 72 72" height="72" width="72" xmlns="http://www.w3.org/2000/svg"><path d="m40.3 10.6h-8.6c-.6 0-.5.5-.5.5v4.4h3.4-3.4v.5c-.2 4.4-.8 5.9-1.4 7.3-.4.9-.7 1.7-.9 3.4v.6c0 3.7.9 33.8.9 34.1 0 0 0 .1.1.1h12.5s.1 0 .1-.1c0-.3.9-30.4.9-34.1v-.6c-.1-1.7-.5-2.5-.9-3.4-.6-1.3-1.2-2.8-1.4-7.3v-.5h-3.4 3.4v-4.4c-.2-.6-.8-.5-.8-.5z" fill="#fff"/><g fill="#37414f"><path d="m42.2 62h-12.4c-.3 0-.6-.3-.6-.6s-.9-30.4-.9-34.1v-.7c.1-1.8.5-2.6.9-3.6.6-1.3 1.2-2.7 1.4-7.1v-4.8c0-.1 0-.5.3-.8.1-.1.4-.3.8-.3h8.6c.1 0 .5 0 .8.3.2.1.3.4.3.8v4.8c.2 4.3.8 5.8 1.3 7.1.4.9.8 1.8.9 3.6v.7c0 3.7-.9 33.8-.9 34.1.2.3-.1.6-.5.6zm-11.9-1.1h11.5c.1-3.9.9-30.2.9-33.6v-.6c-.1-1.6-.4-2.3-.8-3.2-.6-1.4-1.3-2.9-1.4-7.4h-2.9v-1.1h2.8v-3.8h-8.6v3.8h2.8v1.1h-2.9c-.2 4.5-.9 6.1-1.4 7.4-.4.9-.7 1.6-.8 3.2v.6c-.1 3.4.6 29.6.8 33.6z"/><path d="m37.4 25.4h-2.9c-.2 0-.3-.1-.4-.2s-.1-.2-.1-.4v-10.8c0-1.1.9-2 2-2s2 .9 2 2v10.8c0 .2-.1.3-.2.4-.1.2-.2.2-.4.2zm-2.3-1.1h1.8v-10.2c0-.5-.4-.9-.9-.9s-.9.4-.9.9z"/></g></svg>