<svg xmlns="http://www.w3.org/2000/svg" width="72" height="72"><path d="M15.61 7.15v.8l-.05.05.05.05v2.57l-.05.05.05.05v3.55l-.05.05.05.05v3.5l-.05.05.05.05v3.5l-.05.05.05.05v3.53l-.05.05.05.05v4.19h-7v35.38h25.92v-1.92h21.84v-6.46h7V39.83h-7V7.15H15.61m1 1h1.44l-1.41 1.47V8.18m0 2.13l2.16-2.13h2.88l-5 5.07v-2.94m0 6.53V14l5.72-5.82h2.9l-8.67 8.67m0 7.23v-2.92l13-13h2.87L16.64 24.07M12 30.42h2.88l-5.26 5.22v-2.91L12 30.42m4.65-1v-4.6L33.22 8.18h22.12v31.65H40v16.56h15.34v5.43H34.53V29.39H16.64m-1.05 1h2.91l-8.88 8.88v-2.91l6-5.94m1.05-10v-2.86L26 8.18h2.9L16.64 20.44m-7 10h1.65L9.62 32v-1.58m13.19 0h2.88L9.62 46.49v-2.93l13.19-13.14m3.6 0h7.1v33.33H9.62V47.21l16.79-16.79m-7.2 0h2.88L9.62 42.84V40l9.59-9.57m35 10.44h8.13v14.5H41v-1.29l13.23-13.22m-10.83 0h2.88L41 46.16v-2.93l2.42-2.37m3.6 0h2.88L41 49.78v-2.9l6-6m3.6 0h2.91L41 53.36V50.5l9.62-9.64M41 42.53v-1.67h1.7z" fill="#272d35"/><path d="M41 40.86v1.67l1.7-1.67H41m12.52 0h-2.91L41 50.5v2.85l12.52-12.5m-3.63 0H47l-6 6v2.91l8.9-8.92m-3.6 0h-2.89L41 43.23v2.93l5.3-5.3m16.07 0h-8.14L41 54.08v1.29h21.36V40.86M22.09 30.42h-2.88L9.62 40v2.85l12.47-12.43m11.42 0h-7.1L9.62 47.21v16.54h23.89V30.42m-7.82 0h-2.88L9.62 43.56v2.93l16.07-16.07m-14.43 0H9.62V32l1.65-1.62m5.37-12.86v2.88L28.9 8.18H26l-9.39 9.39m1.85 12.86h-2.88l-6 5.94v2.91l8.87-8.85M16.6 24.8v4.6h17.9v32.42h20.8v-5.43H40V39.83h15.34V8.18H33.22L16.64 24.79m-1.77 5.63H12l-2.38 2.31v2.91l5.25-5.22m1.77-9.26v2.91L32.5 8.18h-2.88l-13 13m0-7.2v2.88l8.68-8.68h-2.9L16.64 14m2.16-5.82l-2.16 2.13v2.93l5-5.07H18.8m-.72 0h-1.44v1.45z" fill="#fff"/></svg>